<svg width="62" height="20" viewBox="0 0 62 20" fill="none" xmlns="http://www.w3.org/2000/svg">
<path fill-rule="evenodd" clip-rule="evenodd" d="M20.2811 20V16.2293L13.2033 16.2359V20H20.2811ZM34.3104 0.010684L30.3128 3.78142H25.7142V19.9748L21.1381 15.6714V3.77307L25.1318 0.010684H34.3104ZM25.7985 20L29.7961 16.2293H34.3947V0.0358685L38.9708 4.33932V16.2376L34.977 20H25.7985ZM62 20V16.2293L54.9222 16.2359V20H62ZM50.3232 0L41.7189 8.10582L44.5492 10.7721L50.3207 5.33499V16.2293H43.2196V20H50.9031L54.8941 16.2402L54.8969 16.24V16.2376L54.8987 16.2359V16.2293H54.8969V4.31375L50.3232 0ZM8.60431 0L0 8.10582L2.83028 10.7721L8.6018 5.33499V16.2293H1.50063V20H9.1842L13.1752 16.2402L13.178 16.24V16.2376L13.1797 16.2359V16.2293H13.178V4.31375L8.60431 0Z" fill="#F9F9F9"/>
</svg>
