<svg width="600" height="592" viewBox="0 0 600 592" fill="none" xmlns="http://www.w3.org/2000/svg">
<path d="M541.796 134.682L321.988 11.5833C308.328 3.93296 291.672 3.93296 278.012 11.5833L58.2043 134.682C43.9935 142.641 35.1924 157.657 35.1924 173.944V418.056C35.1924 434.343 43.9935 449.359 58.2043 457.318L278.012 580.417C291.672 588.067 308.328 588.067 321.988 580.417L541.796 457.318C556.006 449.359 564.808 434.343 564.808 418.056V173.944C564.808 157.657 556.006 142.641 541.796 134.682Z" fill="#F9F9FE" stroke="#EFF1FA" stroke-width="10"/>
<path fill-rule="evenodd" clip-rule="evenodd" d="M301.206 581.136L300.591 10.8496C307.13 10.9461 313.651 12.6447 319.545 15.9455L539.353 139.044C551.984 146.118 559.808 159.466 559.808 173.944V418.055C559.808 432.533 551.984 445.881 539.353 452.955L319.545 576.054C313.836 579.251 307.539 580.945 301.206 581.136Z" fill="white"/>
<path d="M274.519 184C286.066 164 314.934 164 326.481 184L442.547 385.033C445.815 390.693 442.863 397.916 436.566 399.667L313.894 433.776C305.131 436.212 295.869 436.212 287.106 433.776L164.435 399.667C158.137 397.916 155.185 390.693 158.453 385.032L274.519 184Z" fill="#1C2036"/>
<path fill-rule="evenodd" clip-rule="evenodd" d="M300.221 169.001C290.211 169.092 280.24 174.092 274.519 184L158.453 385.032C155.185 390.693 158.137 397.916 164.434 399.667L287.106 433.775C291.397 434.969 295.808 435.578 300.221 435.602V169.001Z" fill="#141830"/>
<path d="M283.169 200.005C290.705 185.914 310.906 185.914 318.442 200.005L361.101 279.772C365.17 287.382 358.337 296.227 349.945 294.211L338.036 291.348C333.584 290.278 329.1 292.998 327.983 297.439V297.439C320.921 325.528 280.964 325.551 273.99 297.44V297.44C272.888 292.997 268.412 290.271 263.958 291.332L251.616 294.271C243.23 296.267 236.416 287.428 240.481 279.827L283.169 200.005Z" fill="#F4F4F8"/>
<path fill-rule="evenodd" clip-rule="evenodd" d="M300.324 318.508L300.184 189.446C307.323 189.229 314.562 192.749 318.442 200.005L361.101 279.772C365.17 287.382 358.337 296.228 349.946 294.211L338.036 291.348C333.584 290.278 329.1 292.999 327.983 297.439C324.389 311.735 312.274 318.761 300.324 318.508Z" fill="white"/>
</svg>
