<svg width="210" height="62" viewBox="0 0 210 62" fill="none" xmlns="http://www.w3.org/2000/svg">
<g clip-path="url(#clip0_39_2769)">
<path d="M121.507 20.7165C121.507 27.3614 117.569 28.7551 114.276 28.7551H106.405V0.0144043H114.01C118.762 0.0144043 121.179 2.86514 121.179 8.48681C121.179 11.5565 120.158 13.1753 119.069 14.0778C120.451 15.0785 121.507 16.9367 121.507 20.7165ZM115.437 19.8509C115.437 16.7812 114.311 16.5274 112.958 16.5274H112.297V23.7146H113.677C114.297 23.7146 115.435 23.7146 115.437 19.8509ZM112.295 5.02008V11.5217H113.138C114.171 11.5217 115.253 11.2884 115.253 8.48681C115.253 5.02008 114.34 5.02008 113.537 5.02008H112.295Z" fill="black"/>
<path d="M145.093 0.034668H139.101L134.75 23.5487V23.4095H127.622V16.7257H132.767V11.3537H127.622V5.32685H134.696V0.034668H121.734V28.7754H139.671L140.318 23.7983H143.878L144.524 28.7754H150.415L145.093 0.034668ZM141.136 18.7538L142.097 10.0992L143.055 18.7538H141.136Z" fill="black"/>
<path d="M162.106 0V5.54595H157.369V28.7755H151.485V5.54595H146.733V0H162.106Z" fill="black"/>
<path d="M112.293 38.2468V44.1365H117.615V49.5024H112.293V61.6973H106.405V32.9546H118.927V38.2468H112.293Z" fill="black"/>
<path d="M133.304 47.4494C133.304 58.8217 131.166 61.9794 125.807 61.9794C120.307 61.9794 118.237 59.0754 118.237 46.6165C118.237 35.5655 119.943 32.373 125.844 32.373C131.3 32.3771 133.304 34.7204 133.304 47.4494ZM127.197 45.0673C127.197 40.1558 127.133 37.3808 125.809 37.3808C124.408 37.3808 124.346 39.9696 124.346 45.362V48.8615C124.346 54.9702 124.466 56.9451 125.881 56.9451C127.073 56.9451 127.197 54.3276 127.197 48.3499V45.0673Z" fill="black"/>
<path d="M148.299 32.9336V54.2169C148.299 60.6552 144.361 62.0058 141.058 62.0058C137.754 62.0058 133.779 60.6552 133.779 54.2169V32.9336H139.669V53.9591C139.669 56.3555 140.118 56.8139 141.13 56.8139C142.052 56.8139 142.332 56.3555 142.407 53.9591V32.9336H148.299Z" fill="black"/>
<path d="M163.893 32.9546V61.6973H158.755L154.606 47.1223V61.6973H149.191V32.9546H155.168L158.474 44.7975V32.9546H163.893Z" fill="black"/>
<path d="M179.762 46.8191C179.762 56.1223 179.026 57.9969 177.473 59.806C176.527 60.9418 174.611 61.6765 172.593 61.6765H164.769V32.9358H171.647C179.169 32.9358 179.762 38.9524 179.762 46.8191ZM173.688 44.5066C173.688 38.7171 173.068 38.0806 171.097 38.0806H170.655V56.4518H171.688C173.432 56.4518 173.694 55.7233 173.694 50.8895L173.688 44.5066Z" fill="black"/>
<path d="M188.914 61.6765V52.1952C188.914 49.8069 187.642 49.8069 187.162 49.8069H186.319V61.6765H180.429V32.9358H187.782C192.507 32.9358 194.806 35.6351 194.806 41.1913C194.806 44.4452 193.937 46.1028 192.286 47.1056C193.59 47.9774 194.732 49.5961 194.732 52.7723V56.5644C194.732 60.3483 195.385 61.6806 195.385 61.6806L188.914 61.6765ZM188.84 41.0828C188.84 37.7245 187.807 37.7245 187.307 37.7245H186.319V44.8381H186.687C187.493 44.8381 188.84 44.8381 188.84 41.0828Z" fill="black"/>
<path d="M210 32.9546L204.168 50.1163V61.6973H198.317V50.1163L192.48 32.9546H198.455L201.242 41.8363L204.029 32.9546H210Z" fill="black"/>
<path d="M14.2264 44.1929C13.5147 44.8977 12.6805 45.4697 11.7638 45.8812C13.5999 46.705 15.0733 48.1587 15.9123 49.9741C15.4148 51.0518 15.1583 52.2232 15.1603 53.4081C15.1585 54.5931 15.415 55.7644 15.9123 56.8421C15.3517 58.0548 14.5028 59.115 13.4382 59.9317C12.3737 60.7485 11.1252 61.2976 9.79959 61.532C8.47401 61.7665 7.11082 61.6793 5.8267 61.2779C4.54257 60.8765 3.37575 60.1729 2.4261 59.2273C1.47645 58.2817 0.77225 57.1222 0.373773 55.8481C-0.0247052 54.574 -0.105594 53.2233 0.138029 51.9115C0.381651 50.5997 0.942531 49.3659 1.77266 48.3157C2.60279 47.2655 3.67746 46.4301 4.90467 45.8812C3.44322 45.227 2.20328 44.1691 1.33356 42.8345C0.463829 41.4998 0.00122946 39.9449 0.00122946 38.3563C0.00122946 36.7677 0.463829 35.2128 1.33356 33.8782C2.20328 32.5435 3.44322 31.4856 4.90467 30.8314C3.44299 30.1774 2.2028 29.1196 1.33284 27.7849C0.46289 26.4502 0.000106748 24.8953 0 23.3065C6.80625e-05 21.7183 0.462628 20.1638 1.33221 18.8295C2.20179 17.4952 3.44147 16.4376 4.9026 15.7837C3.16967 15.0067 1.75775 13.6651 0.902023 11.9823C0.0462931 10.2995 -0.201602 8.37709 0.199623 6.53525C0.600848 4.69342 1.62698 3.04333 3.10711 1.8598C4.58723 0.676282 6.43202 0.0307617 8.33422 0.0307617C10.2364 0.0307617 12.0812 0.676282 13.5613 1.8598C15.0415 3.04333 16.0676 4.69342 16.4688 6.53525C16.87 8.37709 16.6221 10.2995 15.7664 11.9823C14.9107 13.6651 13.4988 15.0067 11.7658 15.7837C13.6074 16.6107 15.0841 18.0705 15.9226 19.893C15.4155 20.9736 15.1498 22.1499 15.1438 23.3416C15.1377 24.5333 15.3914 25.7122 15.8875 26.7978C15.0407 28.5885 13.575 30.02 11.7555 30.8335C12.984 31.3836 14.0595 32.2206 14.8897 33.2729C15.72 34.3251 16.2802 35.5611 16.5223 36.8748C16.7645 38.1886 16.6813 39.5409 16.28 40.8158C15.8787 42.0908 15.1712 43.2503 14.2182 44.1949L14.2264 44.1929Z" fill="black"/>
<path d="M16.6663 23.3033C16.668 24.5088 16.4021 25.7 15.8874 26.7925C15.3913 25.7069 15.1376 24.528 15.1437 23.3363C15.1497 22.1446 15.4154 20.9683 15.9225 19.8877C16.414 20.9605 16.6677 22.1252 16.6663 23.3033Z" fill="black"/>
<path d="M16.6663 53.4046C16.6676 54.5904 16.4104 55.7624 15.9122 56.8406C15.4149 55.7629 15.1584 54.5916 15.1602 53.4066C15.1582 52.2217 15.4147 51.0503 15.9122 49.9727C16.4101 51.0495 16.6673 52.2202 16.6663 53.4046Z" fill="black"/>
<path d="M31.8264 53.3743V53.407C31.8264 55.596 30.9486 57.6953 29.386 59.2431C27.8234 60.7909 25.7041 61.6605 23.4943 61.6605C22.3997 61.6618 21.3156 61.4492 20.3041 61.0349C19.2926 60.6206 18.3735 60.0127 17.5995 59.2461C16.8255 58.4794 16.2118 57.569 15.7936 56.5671C15.3753 55.5651 15.1608 54.4912 15.1621 53.407C15.1608 52.3235 15.3751 51.2503 15.7928 50.2489C16.2105 49.2474 16.8235 48.3374 17.5966 47.5708C18.3697 46.8043 19.2878 46.1962 20.2984 45.7814C21.3089 45.3667 22.3921 45.1533 23.486 45.1536H23.4963C25.6999 45.1546 27.8134 46.0201 29.3745 47.5607C30.9355 49.1012 31.8171 51.1915 31.8264 53.3743Z" fill="black"/>
<path d="M23.4844 45.1517C28.325 45.1517 30.3269 43.1584 30.3207 38.3635L38.6632 46.6088C33.8226 46.6088 31.8207 48.602 31.8269 53.3969L23.4844 45.1517Z" fill="black"/>
<path d="M38.6549 30.1018C36.4451 30.1018 34.3258 30.9714 32.7632 32.5192C31.2006 34.067 30.3228 36.1663 30.3228 38.3552C30.3228 40.5442 31.2006 42.6435 32.7632 44.1913C34.3258 45.7391 36.4451 46.6087 38.6549 46.6087C40.8647 46.6087 42.984 45.7391 44.5466 44.1913C46.1092 42.6435 46.9871 40.5442 46.9871 38.3552C46.9871 36.1663 46.1092 34.067 44.5466 32.5192C42.984 30.9714 40.8647 30.1018 38.6549 30.1018Z" fill="black"/>
<path d="M31.8099 23.3706C31.8094 25.5555 30.9345 27.6511 29.3769 29.1981C27.8194 30.7452 25.7062 31.6175 23.5005 31.624H23.4757C22.3815 31.624 21.298 31.4106 20.2871 30.9958C19.2762 30.581 18.3577 29.9731 17.584 29.2067C16.8103 28.4403 16.1965 27.5304 15.7778 26.5291C15.3591 25.5277 15.1436 24.4545 15.1436 23.3706C15.1436 22.2868 15.3591 21.2135 15.7778 20.2122C16.1965 19.2108 16.8103 18.301 17.584 17.5346C18.3577 16.7682 19.2762 16.1602 20.2871 15.7454C21.298 15.3307 22.3815 15.1172 23.4757 15.1172C24.5701 15.1169 25.6538 15.3302 26.6649 15.7449C27.6761 16.1595 28.5948 16.7674 29.3688 17.5338C30.1427 18.3003 30.7566 19.2102 31.1755 20.2117C31.5943 21.2132 31.8099 22.2866 31.8099 23.3706Z" fill="black"/>
<path d="M31.8102 23.3711C31.8102 28.166 33.8225 30.149 38.661 30.1449L30.3372 38.4066C30.3372 33.6137 28.3249 31.6307 23.4863 31.6348L31.8102 23.3711Z" fill="black"/>
<path d="M47.0033 38.396C47.0033 38.6007 47.0033 38.8053 46.9806 39.01C46.8248 41.0855 45.8831 43.0262 44.3442 44.4432C42.8052 45.8602 40.7826 46.649 38.6815 46.6515C38.4563 46.6515 38.2331 46.6515 38.0141 46.6229H38.0017C36.6454 46.5153 35.3364 46.0794 34.1898 45.3537C33.0433 44.6279 32.0941 43.6344 31.4257 42.4603C31.3575 42.3437 31.2935 42.225 31.2315 42.1042L31.1571 41.9528C31.0931 41.8239 31.0332 41.6929 30.9753 41.5599C30.9175 41.4269 30.8844 41.3389 30.8431 41.2263C30.5077 40.3204 30.3363 39.363 30.3369 38.3981V38.3715C30.341 36.2063 31.2041 34.1295 32.74 32.589C34.2759 31.0484 36.3616 30.1676 38.5472 30.1365H38.6711C40.2747 30.1367 41.8442 30.5949 43.1916 31.4562C44.539 32.3175 45.607 33.5454 46.2678 34.9928C46.3029 35.0705 46.338 35.1503 46.3711 35.2301C46.4041 35.31 46.4455 35.4164 46.4806 35.5105C46.5054 35.5733 46.5281 35.6367 46.5488 35.7008C46.7764 36.3507 46.9195 37.0267 46.9744 37.7125C46.993 37.9417 47.0033 38.1627 47.0033 38.396Z" fill="black"/>
<path d="M47.0036 38.3962C47.0036 38.6009 47.0036 38.8055 46.9808 39.0102C46.9808 38.9672 46.9808 38.9222 46.9704 38.8771C46.9579 38.6971 46.9517 38.517 46.9517 38.3348C46.9517 38.1527 46.9517 37.989 46.9683 37.8191V37.7271C46.9932 37.9419 47.0036 38.1629 47.0036 38.3962Z" fill="black"/>
<path d="M62.9445 26.5593C62.679 27.1723 62.339 27.751 61.9321 28.2825C62.1968 27.6691 62.5368 27.0903 62.9445 26.5593Z" fill="black"/>
<path d="M93.9368 8.25361C93.9368 10.4427 93.0591 12.5422 91.4965 14.0904C89.934 15.6385 87.8147 16.5085 85.6047 16.5091C84.0079 16.5094 82.4446 16.0551 81.1011 15.2003C79.7576 14.3455 78.6904 13.1262 78.0266 11.6876C77.3625 13.1246 76.2961 14.3427 74.9539 15.1974C73.6118 16.052 72.0503 16.5072 70.4548 16.5091C65.6616 16.5091 63.6535 18.4716 63.6266 23.1806C63.6266 23.2215 63.6266 23.2625 63.6266 23.3034C63.6283 24.4221 63.3991 25.5294 62.9531 26.5573C62.5455 27.0883 62.2055 27.667 61.9408 28.2804C61.7094 28.5841 61.4567 28.8713 61.1846 29.1399C60.4805 29.8376 59.6564 30.4052 58.7509 30.816C59.6563 31.2261 60.4804 31.793 61.1846 32.49L61.3396 32.6455C61.2896 32.2793 61.2648 31.91 61.2652 31.5404C61.263 30.4201 61.4929 29.3112 61.9408 28.2824C62.3477 27.751 62.6876 27.1723 62.9531 26.5593C64.0066 25.1803 65.4707 24.164 67.1388 23.6537C68.8068 23.1434 70.5946 23.165 72.2495 23.7155C73.9045 24.2659 75.3432 25.3174 76.3623 26.7214C77.3815 28.1255 77.9297 29.8111 77.9295 31.5404C77.9291 33.1912 77.4291 34.8038 76.4941 36.1702C75.5591 37.5366 74.232 38.594 72.6842 39.2058C71.1364 39.8176 69.4391 39.9558 67.8112 39.6024C66.1834 39.249 64.6999 38.4204 63.5523 37.2235C63.8183 39.1844 63.3653 41.1748 62.2755 42.8329H62.292C60.7012 45.2682 60.6268 46.2689 62.0689 48.563C63.0845 49.9622 63.6295 51.6427 63.6266 53.3661C63.5922 55.5328 62.6991 57.5992 61.1401 59.1194C59.581 60.6396 57.4811 61.4916 55.2935 61.4916C53.1058 61.4916 51.0059 60.6396 49.4468 59.1194C47.8878 57.5992 46.9947 55.5328 46.9603 53.3661C46.958 51.6346 47.5075 49.9466 48.5304 48.5425C49.958 46.2546 49.8795 45.2518 48.2949 42.8227H48.3094C47.5528 41.6759 47.0989 40.3593 46.9892 38.9937C47.0036 38.7891 47.0119 38.5844 47.0119 38.3798C47.0119 38.1506 47.0119 37.9254 46.983 37.7024C47.0935 36.2272 47.6019 34.8085 48.4553 33.5946C49.3086 32.3806 50.4755 31.4161 51.8339 30.8017C50.38 30.1471 49.1464 29.0926 48.2799 27.7638C47.4133 26.4349 46.9503 24.8874 46.9458 23.3054C46.9463 21.1184 47.823 19.021 49.3832 17.4736C50.9434 15.9262 53.0598 15.0552 55.2676 15.052H55.278C60.1021 15.052 62.0957 13.0608 62.0957 8.29863V8.26589C62.1004 6.38475 62.7533 4.56158 63.9465 3.09807C65.1396 1.63456 66.8015 0.618464 68.657 0.217923C70.5125 -0.182618 72.4505 0.0564068 74.1502 0.89545C75.8499 1.73449 77.2095 3.12325 78.0039 4.8319C78.6684 3.394 79.7358 2.1754 81.0792 1.32102C82.4226 0.466644 83.9855 0.0124456 85.582 0.0124514C86.6762 0.0121826 87.7598 0.225486 88.7709 0.640165C89.7819 1.05484 90.7005 1.66278 91.4743 2.42923C92.2481 3.19569 92.8618 4.10564 93.2804 5.10712C93.6991 6.10859 93.9144 7.18195 93.9141 8.26589L93.9368 8.25361Z" fill="black"/>
<path d="M62.9445 26.5593C62.679 27.1723 62.339 27.751 61.9321 28.2825C62.1968 27.6691 62.5368 27.0903 62.9445 26.5593Z" fill="black"/>
</g>
<defs>
<clipPath id="clip0_39_2769">
<rect width="210" height="62" fill="white"/>
</clipPath>
</defs>
</svg>
