<svg id="图层_1" data-name="图层 1" xmlns="http://www.w3.org/2000/svg" viewBox="0 0 1200 1200"><defs><style>.cls-1{fill:#00df9b;}.cls-2{fill:#2471fe;}</style></defs><title>Icon</title><path class="cls-1" d="M600,774.6c138,0,250.32-112.3,250.32-250.33a249.06,249.06,0,0,0-50.15-150.14,125,125,0,0,0,50.15-100.19H600c-138,0-250.34,112.3-250.34,250.33S462,774.6,600,774.6Zm0-386.08c74.85,0,135.74,60.9,135.74,135.75S674.85,660,600,660s-135.75-60.9-135.75-135.74S525.15,388.52,600,388.52Z"/><path class="cls-2" d="M600,973.3c-115,0-230.07-43.79-317.67-131.36A128,128,0,0,1,367,764.43a335.05,335.05,0,0,0,466.06,0,128,128,0,0,1,84.64,77.51C830.07,929.51,715.05,973.3,600,973.3Z"/></svg>