<svg width="300" height="300" viewBox="0 0 300 300" fill="none" xmlns="http://www.w3.org/2000/svg">
<path d="M217.678 163.683C217.678 175.186 214.312 186.437 207.996 196.047L221.674 207.292C230.623 194.518 235.409 179.286 235.378 163.683C235.373 148.523 230.888 133.703 222.489 121.09L208.268 131.843C214.124 140.965 217.678 152.027 217.678 163.683Z" fill="#02E2AC"/>
<path d="M232.783 215.451C223.461 207.751 191.189 182.011 186.907 178.593C189.339 174.002 190.59 168.88 190.55 163.686C190.509 158.492 189.177 153.389 186.673 148.837L222.587 121.7L233.077 113.193C235.655 111.477 236.076 109.575 234.203 107.111C231.763 103.901 229.12 100.85 226.29 97.9768C211.181 82.627 190.827 72.4405 168.132 70.2973V52.2651C168.132 47.4943 164.528 43.3285 159.762 43.0198C158.536 42.9383 157.307 43.109 156.151 43.5213C154.994 43.9336 153.935 44.5788 153.038 45.4169C152.141 46.2549 151.426 47.268 150.937 48.3934C150.449 49.5187 150.196 50.7324 150.196 51.9591V70.3055C142.549 71.0271 135.019 72.6861 127.777 75.2451V52.2651C127.777 47.4943 124.173 43.3285 119.407 43.0198C118.182 42.9383 116.953 43.109 115.797 43.5213C114.64 43.9336 113.581 44.5788 112.684 45.4169C111.787 46.255 111.073 47.2681 110.584 48.3935C110.095 49.5188 109.843 50.7324 109.843 51.9591V83.8084C83.139 100.241 65.2707 129.611 65.0029 163.174C64.5908 215.326 108.099 258 160.308 258H230.004C231.275 257.999 232.505 257.549 233.475 256.729C234.445 255.909 235.094 254.772 235.305 253.52L235.377 220.985C235.381 219.928 235.15 218.884 234.701 217.927C234.253 216.97 233.598 216.125 232.783 215.451V215.451ZM217.545 226.931L217.45 240.083H160.102C117.968 240.083 82.7297 205.643 82.9371 163.555C83.0498 140.452 93.4762 119.793 109.839 105.903V123.318C109.839 128.09 113.443 132.256 118.209 132.565C119.435 132.646 120.663 132.475 121.82 132.063C122.976 131.65 124.036 131.005 124.932 130.167C125.829 129.329 126.544 128.316 127.032 127.191C127.521 126.066 127.773 124.852 127.773 123.626V94.5506C137.634 90.088 148.335 87.7835 159.16 87.7916C179.214 87.7916 196.108 94.4367 209.718 107.081L173.108 135.85C168.775 133.696 164 132.579 159.16 132.584C141.826 132.584 127.773 146.621 127.773 163.938C127.773 181.255 141.826 195.292 159.16 195.292C164.075 195.296 168.923 194.141 173.307 191.922L217.545 226.931ZM172.612 163.938C172.612 166.596 171.823 169.194 170.345 171.404C168.867 173.614 166.766 175.336 164.308 176.353C161.85 177.371 159.145 177.637 156.536 177.118C153.926 176.6 151.529 175.32 149.648 173.44C147.766 171.561 146.485 169.167 145.966 166.56C145.447 163.953 145.713 161.251 146.732 158.795C147.75 156.34 149.474 154.241 151.686 152.764C153.898 151.288 156.499 150.5 159.16 150.5C162.728 150.5 166.149 151.915 168.672 154.436C171.195 156.956 172.612 160.374 172.612 163.938Z" fill="#0E0333"/>
</svg>
