<svg id="Layer_1" data-name="Layer 1" xmlns="http://www.w3.org/2000/svg" viewBox="0 0 1216 611.49"><title>LOGO 2</title><path d="M142,754.42c0-29,22.81-51.17,52.23-51.17,14.55,0,29,6.3,37.21,16.2,2.55,2.7,3.76,4.95,3.76,7.36a7.34,7.34,0,0,1-7.36,7.2c-2.55,0-4.35-.9-6.9-3.75-8-8.55-16.06-12.46-26.86-12.46-20.71,0-35.57,15.31-35.57,36.47,0,21.61,15.15,37.07,36.47,37.07,12.3,0,23.26-5.26,29.56-14.26v-11.4H201c-4.5,0-7.81-3.16-7.81-7.06s3.31-7,7.81-7h31.36a7.92,7.92,0,0,1,8.11,8.25v14.41a16.79,16.79,0,0,1-2.7,9.75c-9.16,13.21-26.12,21.62-43.52,21.62C164.81,805.6,142,783.39,142,754.42Z" transform="translate(-142 -194.25)"/><path d="M363.39,798.39A7.25,7.25,0,0,1,356,805.6c-2.69,0-5.1-1.35-7-4.06l-26-35.86H302.91v31.81a8,8,0,1,1-15.91,0V713a7.88,7.88,0,0,1,8.1-8.1H323c20.11,0,33.61,12.15,33.61,30.31,0,12.61-6.6,22.51-17.4,27.31L361,792.39A9.64,9.64,0,0,1,363.39,798.39Zm-60.48-46.82h19.81c10.95,0,17.56-6.3,17.56-16.21S333.52,719,322.72,719H302.91Z" transform="translate(-142 -194.25)"/><path d="M408.74,796.29V712.55a7.5,7.5,0,0,1,7.65-7.65h50.88a7.14,7.14,0,0,1,7.35,7.2,7,7,0,0,1-7.35,7H424.65v25.36h30.76a6.91,6.91,0,1,1,0,13.81H424.65v31.37h44.42a7,7,0,0,1,7.35,7,7.14,7.14,0,0,1-7.35,7.2H416.39A7.5,7.5,0,0,1,408.74,796.29Z" transform="translate(-142 -194.25)"/><path d="M521.17,796.29V712.55a7.5,7.5,0,0,1,7.65-7.65H579.7a7.14,7.14,0,0,1,7.35,7.2,7,7,0,0,1-7.35,7H537.08v25.36h30.76a6.91,6.91,0,1,1,0,13.81H537.08v31.37H581.5a7,7,0,0,1,7.35,7,7.14,7.14,0,0,1-7.35,7.2H528.82A7.5,7.5,0,0,1,521.17,796.29Z" transform="translate(-142 -194.25)"/><path d="M715.23,711.35v86.44a7.66,7.66,0,0,1-7.8,7.81c-3.3,0-5.4-1.81-7.5-4.51L649.5,734.61v62.88a8,8,0,1,1-15.91,0V711.05a7.76,7.76,0,0,1,7.81-7.8c3.6,0,5.4,1.8,8,5.25l50.13,65.58-.15-62.73a8,8,0,1,1,15.9,0Z" transform="translate(-142 -194.25)"/><path d="M764.49,792.39V716.45c0-7.65,5.4-13.35,12.91-13.35s12.9,5.7,12.9,13.35v24.62h36.17V716.15c0-7.65,5.41-13,12.91-13s12.9,5.4,12.9,13v76.24c0,7.65-5.55,13.36-12.9,13.36s-12.91-5.71-12.91-13.36V764.32H790.3v28.07c0,7.65-5.55,13.36-12.9,13.36S764.49,800,764.49,792.39Z" transform="translate(-142 -194.25)"/><path d="M1000.74,754.42c0,28.81-23.57,51.33-53.58,51.33s-53.28-22.52-53.28-51.33,23.42-51.32,53.28-51.32S1000.74,725.76,1000.74,754.42Zm-80.44,0c0,16.51,10.8,27.61,27,27.61,15.91,0,27-11.4,27-27.61,0-16.06-11.25-27.61-27-27.61C931.25,726.81,920.3,738.06,920.3,754.42Z" transform="translate(-142 -194.25)"/><path d="M1041.89,761.93V716.15a12.91,12.91,0,1,1,25.81,0v47.72c0,11,7,18.16,18,18.16s18-7.2,18-18.16V716.15c0-7.5,5.4-13,12.9-13a12.66,12.66,0,0,1,12.91,13v45.78c0,25.81-18,43.82-43.82,43.82S1041.89,787.74,1041.89,761.93Z" transform="translate(-142 -194.25)"/><path d="M1177,794.79c-3.3-3.15-5.25-6.6-5.25-10.5a11.52,11.52,0,0,1,11.56-11.41,10.7,10.7,0,0,1,5.85,1.8c2.25,1.5,8.55,8.4,18.91,8.4,6.9,0,10.21-2.4,10.21-7.2s-3.16-6.15-10.06-9.15l-10.2-4.51c-15.76-6.9-25.07-15.9-25.07-29.86,0-17.71,15-29.26,34.67-29.26,17.41-.16,25.81,8.55,28.21,11.4a11.3,11.3,0,0,1,3,7.65,11.86,11.86,0,0,1-11.56,11.56,10.94,10.94,0,0,1-6.6-2.25c-3.3-2.25-6.16-5.7-12.76-5.7-5.1,0-8.85,1.8-8.85,6.3,0,3.75,2.4,5.55,8.55,8.1L1219,745c16.5,6.9,25.36,15.3,25.36,29.86,0,19.51-15.91,30.92-36.32,30.92C1197.09,805.75,1184,801.39,1177,794.79Z" transform="translate(-142 -194.25)"/><path d="M1286,790.89V718A12.7,12.7,0,0,1,1299,704.9h45.32c6.91,0,11.86,5,11.86,11.55a11.48,11.48,0,0,1-11.86,11.71h-32.56v13.66h20.71a10.81,10.81,0,1,1,0,21.61h-20.71v17.25h34.36c6.91,0,11.86,5,11.86,11.56a11.48,11.48,0,0,1-11.86,11.7H1299A12.7,12.7,0,0,1,1286,790.89Z" transform="translate(-142 -194.25)"/><path d="M750,454.07H549.3a8,8,0,1,1,0-15.92H742v-70.3a8,8,0,1,1,15.92,0v78.26A8,8,0,0,1,750,454.07Z" transform="translate(-142 -194.25)"/><path d="M950.7,454.07H750a8,8,0,0,1-8-8V367.85a8,8,0,1,1,15.92,0v70.3H950.7a8,8,0,0,1,0,15.92Z" transform="translate(-142 -194.25)"/><path d="M780.65,375.81H750.3a8,8,0,0,1-8-8V337.5a44.39,44.39,0,0,1,44.34-44.34H817a8,8,0,0,1,8,8v30.35A44.39,44.39,0,0,1,780.65,375.81Zm-22.39-15.92h22.39a28.45,28.45,0,0,0,28.42-28.42V309.08H786.68a28.45,28.45,0,0,0-28.42,28.42Z" transform="translate(-142 -194.25)"/><path d="M750.3,375.81H727.8a36.91,36.91,0,0,1-36.87-36.87V316.43a8,8,0,0,1,8-8H721.4a36.9,36.9,0,0,1,36.86,36.87v22.51A8,8,0,0,1,750.3,375.81Zm-43.45-51.42v14.55a21,21,0,0,0,20.95,20.95h14.54V345.34a21,21,0,0,0-20.94-20.95Z" transform="translate(-142 -194.25)"/><path d="M675.54,526.91H525.08a8,8,0,0,1,0-15.92H675.54A66.58,66.58,0,0,0,742,444.48v-71a8,8,0,0,1,15.92,0v71A82.52,82.52,0,0,1,675.54,526.91Z" transform="translate(-142 -194.25)"/><path d="M974.92,526.91H824.46A82.52,82.52,0,0,1,742,444.48v-71a8,8,0,0,1,15.92,0v71A66.58,66.58,0,0,0,824.46,511H974.92a8,8,0,1,1,0,15.92Z" transform="translate(-142 -194.25)"/><path d="M675.54,593.54H576.48a8,8,0,0,1,0-15.92h99.06a66.57,66.57,0,0,0,66.5-66.5V462.86a8,8,0,0,1,15.92,0v48.26A82.51,82.51,0,0,1,675.54,593.54Z" transform="translate(-142 -194.25)"/><path d="M923.52,593.54H824.46A82.52,82.52,0,0,1,742,511.12V462.86a8,8,0,0,1,15.92,0v48.26a66.57,66.57,0,0,0,66.5,66.5h99.06a8,8,0,1,1,0,15.92Z" transform="translate(-142 -194.25)"/><path d="M675.54,668H644.72a8,8,0,0,1,0-15.92h30.82A66.58,66.58,0,0,0,742,585.58a8,8,0,1,1,15.92,0A82.52,82.52,0,0,1,675.54,668Z" transform="translate(-142 -194.25)"/><path d="M855.28,668H824.46A82.52,82.52,0,0,1,742,585.58a8,8,0,1,1,15.92,0,66.58,66.58,0,0,0,66.5,66.51h30.82a8,8,0,1,1,0,15.92Z" transform="translate(-142 -194.25)"/><path d="M750,601.77a8,8,0,0,1-8-8V380.49a8,8,0,0,1,15.92,0V593.81A8,8,0,0,1,750,601.77Z" transform="translate(-142 -194.25)"/><path d="M852.73,454.07a8,8,0,0,1-8-8v-104a8,8,0,0,1,8-8h44.89L750,212.53,602.38,334.18h44.9a8,8,0,0,1,8,8v72.8a8,8,0,0,1-15.92,0V350.1H580.21a8,8,0,0,1-5.07-14.1l169.8-139.93a8,8,0,0,1,10.13,0L924.86,336a8,8,0,0,1-5.06,14.1H860.69v96A8,8,0,0,1,852.73,454.07Z" transform="translate(-142 -194.25)"/></svg>