<svg width="161" height="26" viewBox="0 0 161 26" fill="none" xmlns="http://www.w3.org/2000/svg">
<path d="M9.66492 19.0751L27.9008 9.86279L28.0003 13.724L9.66492 23.0202V19.0751Z" fill="#23B49A"/>
<path d="M13.5229 17.1235L19.3496 20.1034L15.5193 22.0549L9.66492 19.0961L13.5229 17.1235Z" fill="#2CCDB0"/>
<path d="M19.3497 24.0276L19.3497 20.1035L15.5194 22.0551L15.4918 26.0002L19.3497 24.0276Z" fill="#46EFD1"/>
<path d="M5.92615 17.1864L24.1422 7.93213L27.9007 9.86272L9.66481 19.096L5.92615 17.1864Z" fill="#2CCDB0"/>
<path d="M5.92615 17.1655L15.5114 22.013V25.9581L5.92615 21.1106V17.1655Z" fill="#177867"/>
<path d="M0 7.63867L9.58529 12.4861V16.4312L0 11.5838V7.63867Z" fill="#131766"/>
<path d="M17.3809 9.67401L20.165 11.017L20.2047 3.31565L17.3809 1.93066V9.67401Z" fill="#1B1F6D"/>
<path d="M9.58533 12.4857L27.8212 3.27344L27.9207 7.13462L9.58533 16.4308V12.4857Z" fill="#262C96"/>
<path d="M5.84668 10.5975L24.0627 1.34326L27.8213 3.27385L9.58534 12.5071L5.84668 10.5975Z" fill="#4950D4"/>
<path d="M3.89775 5.70776L9.68472 8.64562L5.85437 10.5972L0 7.63835L3.89775 5.70776Z" fill="#4950D4"/>
<path d="M21.2786 0L24.0627 1.34302L20.2047 3.31558L17.3809 1.93059L21.2786 0Z" fill="#4950D4"/>
<path d="M40.7184 16.7183V6.9831H36.5942V5H42.8027V17.0113C42.8027 18.123 42.4553 19.0169 41.7605 19.693C41.2875 20.1437 40.7554 20.4366 40.1641 20.5718C39.5728 20.707 38.8485 20.7746 37.9911 20.7746H34V18.7915H38.2794C39.9054 18.7915 40.7184 18.1005 40.7184 16.7183Z" fill="white"/>
<path d="M54.395 20.7746H50.5591C48.9183 20.7746 47.7431 20.5268 47.0336 20.031C46.3979 19.5953 45.9914 19.077 45.814 18.4761C45.6514 17.8601 45.5701 17.0563 45.5701 16.0648V9.95775H47.5214V16.0423C47.5214 16.3127 47.5288 16.5455 47.5435 16.7408C47.5583 16.9211 47.6101 17.1615 47.6988 17.462C47.7874 17.7474 47.9131 17.9878 48.0757 18.1831C48.2383 18.3634 48.4748 18.5286 48.7852 18.6789C49.0957 18.8141 49.4726 18.8817 49.9161 18.8817H52.4438V9.95775H54.395V20.7746Z" fill="white"/>
<path d="M64.5599 9.95775V11.8507H60.6353C60.2066 11.8507 59.8371 11.9333 59.5267 12.0986C59.2162 12.2639 59.061 12.4967 59.061 12.7972C59.061 12.9775 59.098 13.1427 59.1719 13.293C59.2458 13.4282 59.3271 13.5408 59.4158 13.631C59.5193 13.7211 59.6671 13.8188 59.8593 13.9239C60.0662 14.0141 60.2214 14.0817 60.3249 14.1268C60.4431 14.1568 60.9162 14.307 61.744 14.5775C62.5718 14.8479 63.1852 15.0732 63.5843 15.2535C63.9834 15.4338 64.2865 15.6817 64.4934 15.9972C64.7151 16.2977 64.8556 16.5981 64.9147 16.8986C64.9738 17.184 65.0034 17.4695 65.0034 17.7549C65.0034 19.7681 63.6434 20.7746 60.9236 20.7746H57.0876V18.8817H60.9236C62.3131 18.8817 63.0078 18.5061 63.0078 17.7549C63.0078 17.3944 62.8009 17.0939 62.387 16.8535C61.9879 16.6131 61.4927 16.4103 60.9014 16.2451C60.3249 16.0798 59.741 15.892 59.1497 15.6817C58.5732 15.4563 58.078 15.1033 57.6641 14.6225C57.265 14.1268 57.0655 13.5183 57.0655 12.7972C57.0655 11.8808 57.4128 11.1822 58.1076 10.7014C58.8023 10.2056 59.6449 9.95775 60.6353 9.95775H64.5599Z" fill="white"/>
<path d="M68.0882 11.8507V7.8169H70.0838V9.95775H73.0771V11.8507H70.0838V16.493C70.0838 17.0188 70.1651 17.4545 70.3277 17.8C70.5051 18.1455 70.7564 18.3934 71.0816 18.5437C71.4068 18.6789 71.7098 18.769 71.9907 18.8141C72.2863 18.8592 72.6485 18.8817 73.0771 18.8817V20.7746C71.3772 20.7746 70.1207 20.4441 69.3077 19.7831C68.4947 19.1221 68.0882 18.0254 68.0882 16.493V11.8507Z" fill="white"/>
<path d="M83.9946 18.7915V20.7746H80.7573C80.1512 20.7746 79.6708 20.7671 79.3161 20.7521C78.9761 20.7221 78.5474 20.6319 78.03 20.4817C77.5127 20.3164 77.0766 20.0761 76.7218 19.7606C76.1749 19.2498 75.8201 18.6413 75.6575 17.9352C75.4949 17.2141 75.4136 16.3728 75.4136 15.4113V5H77.4979V15.3662C77.4979 16.2376 77.594 16.9211 77.7861 17.4169C78.1705 18.3333 78.9761 18.7915 80.203 18.7915H83.9946Z" fill="white"/>
<path d="M91.0993 9.73239C93.6122 9.83756 94.8687 10.8967 94.8687 12.9099C94.8687 15.4188 93.2501 16.6732 90.0128 16.6732H89.1037V14.938H90.168C91.1584 14.938 91.8458 14.7878 92.2301 14.4873C92.6144 14.1718 92.8066 13.6535 92.8066 12.9324C92.8066 12.4667 92.6366 12.1211 92.2966 11.8958C91.9566 11.6554 91.5206 11.5352 90.9884 11.5352C89.9389 11.5352 89.1111 11.9108 88.505 12.662C87.9138 13.4131 87.6181 14.3146 87.6181 15.3662C87.6181 16.4779 87.9359 17.3793 88.5716 18.0704C89.222 18.7615 90.0645 19.107 91.0993 19.107C92.0305 19.107 92.7918 18.8742 93.3831 18.4085L94.7135 19.738C93.6935 20.5793 92.4888 21 91.0993 21C89.4141 21 88.069 20.4967 87.0638 19.4901C86.0586 18.4836 85.556 17.184 85.556 15.5915C85.556 13.8188 86.0512 12.384 87.0416 11.2873C88.032 10.1906 89.3846 9.6723 91.0993 9.73239Z" fill="white"/>
<path d="M97.1942 9.95775H101.03C102.671 9.95775 103.846 10.2056 104.556 10.7014C105.191 11.1371 105.59 11.6629 105.753 12.2789C105.93 12.8798 106.019 13.6761 106.019 14.6676V20.7746H104.068V14.6901C104.068 14.4197 104.06 14.1944 104.046 14.0141C104.031 13.8188 103.979 13.5784 103.89 13.293C103.802 12.9925 103.676 12.7521 103.514 12.5718C103.351 12.3765 103.114 12.2113 102.804 12.0761C102.494 11.9258 102.117 11.8507 101.673 11.8507H99.1455V20.7746H97.1942V9.95775Z" fill="white"/>
<path d="M117.004 5H119V20.7746H113.789C112.178 20.7746 110.87 20.2563 109.865 19.2197C108.86 18.1681 108.357 16.846 108.357 15.2535C108.357 13.6911 108.874 12.384 109.909 11.3324C110.959 10.2657 112.2 9.73239 113.634 9.73239C114.551 9.73239 115.408 9.95775 116.206 10.4085V12.4366C115.467 11.8958 114.61 11.6254 113.634 11.6254C112.747 11.6254 111.993 11.9634 111.372 12.6394C110.766 13.3005 110.463 14.1718 110.463 15.2535C110.463 16.3502 110.752 17.2291 111.328 17.8901C111.919 18.5512 112.74 18.8817 113.789 18.8817H117.004V5Z" fill="white"/>
<path d="M134.902 13.44C134.887 15.8448 134.218 17.7096 132.893 19.0344C131.582 20.3448 129.768 21 127.45 21H124.512V5.88H127.45C129.768 5.88 131.582 6.5424 132.893 7.8672C134.218 9.1776 134.887 11.0352 134.902 13.44ZM127.709 19.0992C129.307 19.0992 130.531 18.5736 131.381 17.5224C132.245 16.4568 132.691 15.096 132.72 13.44C132.691 11.784 132.245 10.4304 131.381 9.3792C130.531 8.3136 129.307 7.7808 127.709 7.7808H126.542V19.0992H127.709Z" fill="white"/>
<path d="M159.158 13.3146C159.146 12.5109 159.043 11.7502 158.848 11.0326C158.666 10.315 158.392 9.69074 158.027 9.15972C157.675 8.61435 157.243 8.1838 156.733 7.86806C156.222 7.55231 155.644 7.39444 155 7.39444C154.356 7.39444 153.778 7.55231 153.267 7.86806C152.757 8.1838 152.319 8.61435 151.954 9.15972C151.602 9.69074 151.328 10.315 151.134 11.0326C150.951 11.7502 150.854 12.5109 150.842 13.3146C150.854 14.1326 150.951 14.8933 151.134 15.5965C151.328 16.2998 151.602 16.9097 151.954 17.4264C152.319 17.9431 152.757 18.3521 153.267 18.6535C153.778 18.9549 154.356 19.1056 155 19.1056C155.644 19.1056 156.222 18.9549 156.733 18.6535C157.243 18.3521 157.675 17.9431 158.027 17.4264C158.392 16.9097 158.666 16.2998 158.848 15.5965C159.043 14.8933 159.146 14.1326 159.158 13.3146ZM149 13.3146C149.012 12.1234 149.164 11.047 149.456 10.0854C149.748 9.12384 150.155 8.30579 150.678 7.63125C151.201 6.94236 151.827 6.41852 152.556 6.05972C153.286 5.68657 154.1 5.5 155 5.5C155.888 5.5 156.696 5.68657 157.426 6.05972C158.167 6.41852 158.799 6.94236 159.322 7.63125C159.845 8.30579 160.252 9.12384 160.544 10.0854C160.836 11.047 160.988 12.1234 161 13.3146C160.988 14.5058 160.836 15.575 160.544 16.5222C160.264 17.4694 159.863 18.2731 159.34 18.9333C158.818 19.5935 158.185 20.103 157.444 20.4618C156.714 20.8206 155.9 21 155 21C154.1 21 153.28 20.8206 152.538 20.4618C151.809 20.103 151.182 19.5935 150.66 18.9333C150.137 18.2731 149.729 17.4694 149.438 16.5222C149.158 15.575 149.012 14.5058 149 13.3146Z" fill="white"/>
<path d="M137.5 14H144.5V15.7H137.5V14Z" fill="white"/>
<path d="M146.789 21V20.8693L145.616 9.62758C145.43 7.85009 143.932 6.5 142.145 6.5V6.5C140.357 6.5 138.859 7.85011 138.674 9.62762L137.5 20.8711V21" stroke="white" stroke-width="2"/>
</svg>
