<svg width="80" height="77" viewBox="0 0 80 77" fill="none" xmlns="http://www.w3.org/2000/svg">
<g clip-path="url(#clip0)">
<path d="M27.6641 75.1993L30.179 61.8691L33.7554 62.5481L33.306 64.8431H33.4399C33.7689 64.1327 34.3235 63.551 35.0176 63.1888C35.6713 62.8738 36.4097 62.7799 37.1214 62.921C37.3186 62.9609 37.5133 63.012 37.7047 63.074L38.2593 63.2748L37.6378 66.5548C37.4139 66.4417 37.1802 66.3489 36.9397 66.2775C36.6702 66.1878 36.3956 66.1144 36.1173 66.0575C35.612 65.9566 35.0895 65.9829 34.5969 66.134C34.1351 66.2879 33.7226 66.5618 33.4016 66.9277C33.0669 67.3163 32.8452 67.7893 32.7608 68.2952L31.3456 75.84L27.6641 75.1993Z" fill="#ED6739"/>
<path d="M44.6754 76.3176C43.9035 76.4998 43.1016 76.5161 42.323 76.3654C41.6251 76.2328 40.9808 75.9006 40.4679 75.4092C39.9251 74.8367 39.5598 74.1193 39.416 73.3437C39.2617 72.7155 39.2617 72.0593 39.416 71.4312C39.5692 70.8833 39.8587 70.3833 40.2575 69.9777C40.6793 69.557 41.1671 69.2081 41.7015 68.9449C42.2783 68.648 42.8798 68.4016 43.4992 68.2086C44.2547 67.96 44.857 67.7496 45.316 67.5775C45.6685 67.4627 45.9939 67.2772 46.2723 67.0324C46.3607 66.9399 46.424 66.8263 46.4558 66.7024C46.4876 66.5784 46.487 66.4484 46.454 66.3248V66.2674C46.4146 66.0282 46.3231 65.8005 46.1859 65.6006C46.0487 65.4006 45.8693 65.2333 45.6603 65.1103C45.1769 64.8803 44.6268 64.8327 44.1111 64.9765C43.5441 65.0671 43.023 65.3428 42.629 65.7606C42.3118 66.1051 42.1197 66.5464 42.0839 67.0133L38.6318 67.4818C38.6152 66.6745 38.8098 65.8768 39.1961 65.1677C39.5921 64.4416 40.1643 63.8267 40.86 63.3795C41.678 62.8482 42.59 62.4781 43.547 62.2894C44.2603 62.1387 44.9888 62.0713 45.7177 62.0886C46.3966 62.1074 47.0668 62.2466 47.6971 62.4998C48.2971 62.745 48.8287 63.1323 49.2462 63.6282C49.7015 64.1802 50.0107 64.8378 50.1451 65.5407L52.0576 74.472L48.5673 75.237L48.1752 73.3915H48.07C47.9475 73.8518 47.7364 74.2838 47.4485 74.6633C47.1466 75.0721 46.7663 75.4167 46.3297 75.6769C45.8176 75.9807 45.2585 76.1972 44.6754 76.3176ZM45.1821 73.554C45.6798 73.4586 46.1463 73.2418 46.5401 72.9229C46.8961 72.638 47.1674 72.261 47.3242 71.8328C47.4826 71.4077 47.5125 70.9455 47.4103 70.5036L47.1042 69.0979C46.9756 69.2193 46.8308 69.3223 46.6739 69.4039C46.4692 69.5171 46.2585 69.6193 46.0428 69.7099L45.3256 70.0064L44.6754 70.2454C44.3019 70.3859 43.9458 70.5688 43.614 70.7905C43.3418 70.9712 43.1236 71.2224 42.9828 71.5172C42.846 71.8171 42.8188 72.1556 42.9063 72.4735C42.9414 72.6983 43.0325 72.9108 43.1712 73.0912C43.3099 73.2717 43.4918 73.4144 43.7 73.5062C44.1796 73.6695 44.6985 73.6762 45.1821 73.5254V73.554Z" fill="#ED6739"/>
<path d="M56.4763 62.7674L61.6592 68.6484L58.7905 71.1346L49.8398 60.9506L52.527 58.5791L54.1048 60.3768L54.2291 60.2716C53.9317 59.5048 53.8947 58.6614 54.1239 57.8714C54.3822 57.0014 54.895 56.2287 55.5965 55.6529C56.2298 55.0677 57.0095 54.6646 57.8532 54.4863C58.6574 54.3355 59.488 54.4219 60.2439 54.7349C61.111 55.1044 61.8781 55.6747 62.4816 56.3988L68.2191 62.8822L65.3503 65.3589L60.0909 59.3823C59.659 58.8183 59.0246 58.4445 58.3219 58.34C57.9939 58.3122 57.6636 58.355 57.3535 58.4655C57.0434 58.576 56.7607 58.7517 56.5241 58.9807C56.1716 59.2845 55.9018 59.6727 55.74 60.1091C55.5947 60.5314 55.5782 60.9873 55.6922 61.4191C55.8427 61.9245 56.1115 62.3867 56.4763 62.7674Z" fill="#ED6739"/>
<path d="M79.4444 52.4126C79.1256 53.4274 78.6268 54.3764 77.9718 55.2144C77.4639 55.8706 76.8087 56.398 76.0593 56.754C75.407 57.0512 74.6885 57.1732 73.9747 57.1078L74.644 53.6558C74.9322 53.6295 75.212 53.5449 75.4664 53.4071C75.7809 53.2346 76.0573 53.0004 76.2792 52.7186C76.5626 52.3407 76.7794 51.917 76.9199 51.4659C77.1773 50.7932 77.2108 50.0555 77.0155 49.3622C76.8873 49.0232 76.6784 48.7206 76.4068 48.4807C76.1352 48.2407 75.809 48.0706 75.4568 47.9852L73.1045 47.2011L73.047 47.3445C73.3662 47.6445 73.6315 47.997 73.8312 48.3868C74.0528 48.8478 74.1796 49.3486 74.2042 49.8594C74.223 50.491 74.1224 51.1203 73.9077 51.7146C73.6098 52.6412 73.072 53.4726 72.349 54.1243C71.5877 54.7783 70.649 55.1911 69.6524 55.3101C68.3757 55.4406 67.0861 55.2737 65.8847 54.8224C64.6216 54.4467 63.4585 53.7933 62.4805 52.9099C61.7149 52.2008 61.1731 51.2835 60.9218 50.2706C60.6945 49.3197 60.7476 48.3232 61.0748 47.4019C61.2597 46.7747 61.5869 46.1988 62.031 45.7189C62.3999 45.3423 62.8428 45.046 63.3316 44.8487C63.7442 44.6774 64.1787 44.5647 64.6225 44.514V44.3801L62.4614 43.6534L63.6567 40.1152L76.633 44.4853C77.6049 44.7759 78.4548 45.3772 79.0523 46.197C79.6099 47.0127 79.9189 47.9727 79.9417 48.9606C79.989 50.132 79.8204 51.3022 79.4444 52.4126ZM71.6031 49.6873C71.7927 49.1716 71.8128 48.6088 71.6605 48.0808C71.4793 47.5508 71.1469 47.0854 70.7043 46.7421C70.1591 46.3142 69.54 45.9901 68.8778 45.7858C68.2145 45.5521 67.5155 45.4356 66.8123 45.4416C66.2419 45.4517 65.6856 45.6206 65.2058 45.9292C64.7517 46.2489 64.4156 46.7093 64.2496 47.2393C64.0637 47.7685 64.0637 48.3453 64.2496 48.8745C64.4334 49.4085 64.765 49.8794 65.2058 50.2324C65.7548 50.6598 66.377 50.9838 67.0419 51.1886C67.688 51.4239 68.3721 51.5374 69.0596 51.5233C69.6149 51.512 70.1555 51.3428 70.6182 51.0356C71.097 50.7242 71.4599 50.2638 71.651 49.7256L71.6031 49.6873Z" fill="#ED6739"/>
<path d="M76.0612 30.7809C76.3298 32.0076 76.2737 33.2831 75.8986 34.4816C75.5445 35.5591 74.879 36.5074 73.9861 37.2069C72.9564 37.9782 71.7559 38.4899 70.4863 38.6986C69.2432 38.9639 67.9546 38.9279 66.7282 38.5934C65.6191 38.2822 64.6232 37.6581 63.8595 36.7957C63.0677 35.8732 62.5421 34.7526 62.3391 33.554C62.1865 32.713 62.1865 31.8514 62.3391 31.0104C62.4652 30.2091 62.7655 29.4453 63.2188 28.7727C63.7042 28.0679 64.3372 27.4773 65.0739 27.0419C65.9615 26.5286 66.9326 26.1757 67.9427 25.9996L68.9564 25.8084L71.0984 37.0539L68.8129 37.4938L67.3307 29.7194C66.8353 29.8073 66.3708 30.0213 65.9823 30.341C65.6242 30.6436 65.3535 31.0365 65.1982 31.4789C65.0432 31.9577 65.0168 32.4689 65.1218 32.9611C65.2094 33.4858 65.4411 33.9758 65.7911 34.3764C66.1163 34.755 66.54 35.0363 67.0151 35.1892C67.498 35.3537 68.0153 35.3899 68.5164 35.2944L70.6967 34.8736C71.289 34.7783 71.8497 34.5422 72.3318 34.1851C72.7706 33.8704 73.1039 33.4304 73.2881 32.9229C73.4644 32.3822 73.4909 31.8039 73.3647 31.2494C73.2984 30.8644 73.1692 30.4928 72.9821 30.1497C72.8105 29.8454 72.5758 29.5813 72.2937 29.3752C72.0087 29.1738 71.6817 29.0397 71.3374 28.9831L70.9166 25.5215C71.7418 25.533 72.5496 25.7605 73.2595 26.1813C74.0012 26.6212 74.6246 27.2349 75.0763 27.9695C75.5797 28.8358 75.914 29.7898 76.0612 30.7809Z" fill="#ED6739"/>
<path d="M20.8931 55.7867C16.2724 51.156 13.6773 44.8815 13.6773 38.3399C13.6773 31.7982 16.2724 25.5237 20.8931 20.893C25.5237 16.2723 31.7982 13.6773 38.3399 13.6773C44.8816 13.6773 51.1561 16.2723 55.7867 20.893C57.1124 22.217 58.2804 23.6898 59.2675 25.2822L70.8763 18.0434C69.3303 15.5747 67.5116 13.2876 65.4544 11.2253C61.8937 7.66461 57.6665 4.84008 53.0142 2.91303C48.3618 0.985976 43.3755 -0.00585937 38.3399 -0.00585937C33.3043 -0.00585938 28.3179 0.985976 23.6656 2.91303C19.0133 4.84008 14.7862 7.66461 11.2254 11.2253C7.6647 14.7861 4.84008 19.0133 2.91303 23.6656C0.985977 28.3179 -0.00585938 33.3042 -0.00585938 38.3399C-0.00585938 43.3755 0.985977 48.3618 2.91303 53.0141C4.84008 57.6664 7.6647 61.8936 11.2254 65.4544C13.9677 68.2018 17.1114 70.5169 20.5489 72.3202L26.8983 60.195C24.6857 59.0367 22.6612 57.5505 20.8931 55.7867Z" fill="#ED6739"/>
</g>
<defs>
<clipPath id="clip0">
<rect width="80" height="76.4427" fill="white"/>
</clipPath>
</defs>
</svg>
