<svg width="64" height="64" viewBox="0 0 64 64" fill="none" xmlns="http://www.w3.org/2000/svg">
<path d="M43.7901 16.8217C43.0873 16.4709 42.4276 16.1413 41.7684 15.8121C40.5426 15.2 39.3186 14.5849 38.09 13.9787C37.9456 13.9075 37.8865 13.8325 37.8865 13.6634C37.8928 10.713 37.892 7.7626 37.8874 4.81218C37.8874 4.6579 37.9317 4.57822 38.0731 4.50782C41.0546 3.0244 44.0336 1.53633 47.0114 0.0448954C47.1317 -0.0153859 47.2212 -0.0145428 47.3406 0.0448954C50.3183 1.53633 53.2974 3.02482 56.2789 4.50782C56.4207 4.57822 56.4642 4.65874 56.4638 4.8126C56.4591 7.76302 56.4591 10.7134 56.4638 13.6638C56.4638 13.8169 56.4228 13.8986 56.2802 13.9695C54.3741 14.9133 52.4714 15.8643 50.5475 16.8238C50.6307 16.8655 50.702 16.9013 50.7738 16.9367C52.603 17.8502 54.4306 18.7663 56.2633 19.6726C56.4228 19.7514 56.4642 19.8437 56.4642 20.0103C56.46 25.4685 56.46 30.9267 56.4655 36.3849C56.4655 36.5725 56.4123 36.6665 56.2413 36.7516C46.2698 41.725 36.3016 46.7044 26.3297 51.6774C26.13 51.7768 26.0684 51.8886 26.0688 52.1061C26.0768 54.4663 26.0726 56.8266 26.0773 59.1868C26.0773 59.3403 26.0346 59.4212 25.8924 59.4916C22.9108 60.975 19.9318 62.4631 16.9541 63.9545C16.8346 64.0144 16.7452 64.0156 16.6249 63.9554C13.6475 62.4639 10.6681 60.9754 7.68656 59.492C7.54558 59.422 7.50042 59.3424 7.50084 59.1881C7.50464 51.1808 7.50506 43.1722 7.5 35.1641C7.5 34.9959 7.5574 34.9204 7.70217 34.8483C12.6194 32.3979 17.5336 29.9411 22.4525 27.4932C22.6475 27.3962 22.7036 27.2879 22.7028 27.0783C22.6952 24.7181 22.6994 22.3579 22.6939 19.9976C22.6939 19.8353 22.7382 19.7518 22.8885 19.6772C25.8641 18.1976 28.8368 16.7121 31.8078 15.2236C31.9336 15.1603 32.0302 15.1599 32.1564 15.2236C34.5618 16.4296 36.9702 17.6298 39.3752 18.8367C39.5212 18.91 39.6343 18.9117 39.7812 18.8375C41.0352 18.2039 42.2938 17.5788 43.5508 16.9507C43.6179 16.9169 43.6833 16.8794 43.7901 16.8221V16.8217ZM41.2749 35.7909V42.5256C41.3589 42.4872 41.4222 42.4602 41.4839 42.4294C43.3068 41.5197 45.1281 40.6071 46.9544 39.7041C47.1241 39.6202 47.1811 39.5283 47.1806 39.3386C47.1743 35.0119 47.176 30.6851 47.176 26.3583V26.0999C44.6326 27.3696 42.1178 28.625 39.5736 29.8951V22.3174C39.4837 22.3591 39.4144 22.3895 39.3465 22.4232C37.5299 23.3295 35.7145 24.2388 33.8949 25.1392C33.7278 25.2218 33.6658 25.3108 33.6658 25.503C33.6717 32.3587 33.6708 39.2139 33.6708 46.0695V46.2967C33.7628 46.3089 33.8181 46.2579 33.8789 46.2276C35.7082 45.3154 37.5362 44.3998 39.368 43.4922C39.5288 43.4125 39.5845 43.3231 39.5841 43.1423C39.5769 41.0421 39.579 38.942 39.5807 36.8418C39.5807 36.7571 39.5427 36.6559 39.655 36.6003C40.1822 36.3385 40.7081 36.075 41.2749 35.7922V35.7909ZM31.9825 33.695C31.8956 33.7342 31.8382 33.7578 31.7829 33.7856C27.4144 35.9671 23.0467 38.1495 18.6762 40.3259C18.5179 40.4047 18.474 40.4954 18.474 40.6627C18.4778 47.5327 18.4774 54.4022 18.4786 61.2722C18.4786 61.3388 18.4575 61.4096 18.5044 61.4838C18.5685 61.4543 18.6323 61.4278 18.6935 61.397C20.5227 60.4839 22.3507 59.5683 24.1826 58.6607C24.3366 58.5844 24.3906 58.4993 24.3902 58.3269C24.3843 55.7769 24.386 53.227 24.386 50.6775C24.386 48.5984 24.3881 46.5189 24.3818 44.4398C24.3814 44.2737 24.4316 44.1915 24.581 44.122C25.0136 43.9196 25.437 43.6979 25.8654 43.4863C25.9261 43.4563 25.9814 43.4049 26.0713 43.4175V50.1151C26.1536 50.0784 26.217 50.0531 26.2782 50.0228C28.1074 49.1101 29.9355 48.195 31.7673 47.2878C31.9268 47.209 31.9876 47.1225 31.9872 46.94C31.9812 42.6061 31.9829 38.2717 31.9829 33.9378V33.6945L31.9825 33.695ZM54.7725 22.3127C54.6737 22.3591 54.6045 22.3903 54.537 22.424C52.7208 23.3304 50.9059 24.2392 49.0867 25.1388C48.9183 25.2223 48.8588 25.3125 48.8592 25.5034C48.8656 29.8289 48.8643 34.1549 48.8643 38.4804V38.7076C48.9559 38.7207 49.0112 38.6697 49.0715 38.6393C50.9004 37.7275 52.728 36.8119 54.5589 35.9047C54.7189 35.8255 54.7772 35.7378 54.7767 35.5561C54.7708 31.2234 54.7721 26.8908 54.7721 22.5581V22.3123L54.7725 22.3127ZM54.7725 7.13871C54.6982 7.17243 54.6598 7.18803 54.6227 7.20657C52.7567 8.13777 50.8915 9.07024 49.0238 9.99722C48.8959 10.0609 48.8605 10.1372 48.8609 10.2733C48.8656 12.1126 48.8639 13.9522 48.8651 15.7914C48.8651 15.8437 48.8453 15.9014 48.8938 15.96C48.9301 15.9444 48.9681 15.9301 49.0044 15.912C50.8768 14.9778 52.7482 14.042 54.6227 13.1125C54.756 13.0463 54.775 12.9586 54.7746 12.8296C54.7717 11.0043 54.7725 9.179 54.7725 7.35369V7.13871Z" fill="#8080FE"/>
</svg>
