<svg width="175" height="48" viewBox="0 0 175 48" fill="none" xmlns="http://www.w3.org/2000/svg">
<path d="M34.0688 14.5252C36.4196 14.8805 38.6976 15.6106 40.8154 16.6875C40.7385 14.7011 40.2984 10.9696 37.89 7.20827C36.8147 5.52837 34.6143 2.10049 30.3217 0.651864C27.3223 -0.354085 24.7501 0.0729813 24.2574 0.192163C22.6062 0.589466 21.0358 1.26614 19.6144 2.19271C15.1252 5.12685 13.5999 9.67561 13.1484 11.259C11.3603 16.432 11.3603 22.0521 13.1484 27.2251C15.0868 31.7809 16.8742 35.4472 20.214 38.7743C22.2636 38.0411 24.1551 36.9276 25.7884 35.4926C24.0323 33.8765 20.1641 29.8542 18.8567 23.5276C18.6943 22.7388 17.6119 17.1741 19.7525 12.2394C21.0343 9.28969 23.7632 5.87031 27.3864 6.5329C32.0749 7.38988 33.9321 14.013 34.0688 14.5252Z" fill="url(#paint0_linear_5425_164025)"/>
<path d="M34.0688 14.5252C36.4196 14.8805 38.6976 15.6106 40.8154 16.6875C40.7385 14.7011 40.2984 10.9696 37.89 7.20827C36.8147 5.52837 34.6143 2.10049 30.3217 0.651864C27.3223 -0.354085 24.7501 0.0729813 24.2574 0.192163C22.6062 0.589466 21.0358 1.26614 19.6144 2.19271C15.1252 5.12685 13.5999 9.67561 13.1484 11.259C11.3603 16.432 11.3603 22.0521 13.1484 27.2251C15.0868 31.7809 16.8742 35.4472 20.214 38.7743C22.2636 38.0411 24.1551 36.9276 25.7884 35.4926C24.0323 33.8765 20.1641 29.8542 18.8567 23.5276C18.6943 22.7388 17.6119 17.1741 19.7525 12.2394C21.0343 9.28969 23.7632 5.87031 27.3864 6.5329C32.0749 7.38988 33.9321 14.013 34.0688 14.5252Z" fill="url(#paint1_linear_5425_164025)"/>
<path d="M52.4072 32.54C52.5612 34.4245 52.3573 36.321 51.8061 38.1302C50.5899 41.3467 48.163 43.2508 46.7715 44.1588C44.419 45.4519 41.8252 46.2501 39.1505 46.5041C33.7285 47.0036 29.5811 45.0853 27.8792 44.1659C29.9809 42.9907 31.8829 41.4919 33.5148 39.725C35.2886 40.108 37.11 40.2242 38.9183 40.0697C42.1784 39.786 45.306 38.3671 46.0551 34.8939C46.163 33.9634 46.125 33.0219 45.9426 32.103C45.474 29.7818 44.0441 27.8139 42.271 26.2858C40.606 24.8528 38.6563 23.7646 36.641 22.9005C35.0502 22.2181 33.398 21.6363 31.6762 21.3951C29.9785 21.1568 28.2167 21.1114 26.5034 21.1029C26.1464 21.1029 25.7898 21.1029 25.4338 21.1029C23.3889 21.143 21.3478 21.295 19.3196 21.5583C19.1082 19.425 19.1916 17.2729 19.5674 15.1622C32.3854 13.2837 44.084 16.7783 49.4761 24.9394C50.6141 26.6732 51.8261 29.1448 52.4072 32.54Z" fill="url(#paint2_linear_5425_164025)"/>
<path d="M52.4072 32.54C52.5612 34.4245 52.3573 36.321 51.8061 38.1302C50.5899 41.3467 48.163 43.2508 46.7715 44.1588C44.419 45.4519 41.8252 46.2501 39.1505 46.5041C33.7285 47.0036 29.5811 45.0853 27.8792 44.1659C29.9809 42.9907 31.8829 41.4919 33.5148 39.725C35.2886 40.108 37.11 40.2242 38.9183 40.0697C42.1784 39.786 45.306 38.3671 46.0551 34.8939C46.163 33.9634 46.125 33.0219 45.9426 32.103C45.474 29.7818 44.0441 27.8139 42.271 26.2858C40.606 24.8528 38.6563 23.7646 36.641 22.9005C35.0502 22.2181 33.398 21.6363 31.6762 21.3951C29.9785 21.1568 28.2167 21.1114 26.5034 21.1029C26.1464 21.1029 25.7898 21.1029 25.4338 21.1029C23.3889 21.143 21.3478 21.295 19.3196 21.5583C19.1082 19.425 19.1916 17.2729 19.5674 15.1622C32.3854 13.2837 44.084 16.7783 49.4761 24.9394C50.6141 26.6732 51.8261 29.1448 52.4072 32.54Z" fill="url(#paint3_linear_5425_164025)"/>
<path d="M30.9584 40.799C37.3588 35.3067 39.4126 28.3885 40.0734 25.768C38.2592 24.5837 36.3172 23.6061 34.2839 22.8537C33.804 25.0798 31.7816 33.1671 24.3685 37.7074C22.5215 38.828 20.5042 39.6426 18.3953 40.1194C16.1551 40.5283 13.859 40.5283 11.6188 40.1194C8.9242 39.3149 7.89449 37.7883 7.58401 37.2661C5.75388 34.1788 7.12256 29.054 11.6188 25.4246C11.0214 23.0809 10.7723 20.6625 10.8797 18.2467C6.52783 20.6355 3.12667 24.4348 1.24052 29.0142C0.924341 29.9606 -0.838848 35.5039 2.19617 40.6103C4.03484 43.1727 6.03303 44.5504 7.49998 45.318C14.1155 48.7842 23.2875 46.9709 30.9584 40.799Z" fill="url(#paint4_linear_5425_164025)"/>
<path d="M30.9584 40.799C37.3588 35.3067 39.4126 28.3885 40.0734 25.768C38.2592 24.5837 36.3172 23.6061 34.2839 22.8537C33.804 25.0798 31.7816 33.1671 24.3685 37.7074C22.5215 38.828 20.5042 39.6426 18.3953 40.1194C16.1551 40.5283 13.859 40.5283 11.6188 40.1194C8.9242 39.3149 7.89449 37.7883 7.58401 37.2661C5.75388 34.1788 7.12256 29.054 11.6188 25.4246C11.0214 23.0809 10.7723 20.6625 10.8797 18.2467C6.52783 20.6355 3.12667 24.4348 1.24052 29.0142C0.924341 29.9606 -0.838848 35.5039 2.19617 40.6103C4.03484 43.1727 6.03303 44.5504 7.49998 45.318C14.1155 48.7842 23.2875 46.9709 30.9584 40.799Z" fill="url(#paint5_linear_5425_164025)"/>
<path d="M97.2457 32.28C95.5459 32.3288 93.873 31.8479 92.4587 30.9038C91.161 29.959 90.5121 28.9004 90.5121 27.7282C90.5121 27.1401 90.8473 26.8284 91.506 26.8284H109.096C109.316 25.8001 109.426 24.7514 109.425 23.6998C109.474 22.1473 109.196 20.6017 108.609 19.1639C108.021 17.726 107.137 16.4282 106.014 15.3549C103.768 13.179 100.86 12.0891 97.2927 12.0851C93.529 12.0851 90.4317 13.2613 88.001 15.6136C85.5702 17.966 84.3686 21.0142 84.396 24.7584C84.396 28.4555 85.582 31.49 87.9539 33.8619C89.1424 35.0358 90.5583 35.9544 92.1147 36.5612C93.6711 37.168 95.3351 37.4501 97.0046 37.3904C99.7149 37.4575 102.39 36.7692 104.732 35.4027C106.955 34.0204 108.579 31.8549 109.284 29.3337H103.479C102.515 31.2979 100.437 32.28 97.2457 32.28ZM92.6939 18.4835C94.0734 17.5315 95.7236 17.0509 97.3986 17.1133C99.0108 17.0422 100.599 17.5258 101.897 18.4835C103.074 19.3695 103.662 20.3811 103.662 21.518C103.677 21.6222 103.667 21.7285 103.634 21.8283C103.6 21.9281 103.544 22.0186 103.469 22.0925C103.394 22.1664 103.302 22.2216 103.202 22.2536C103.102 22.2856 102.995 22.2934 102.891 22.2766H90.371C90.6283 20.7604 91.4603 19.4018 92.6939 18.4835Z" fill="#101828"/>
<path d="M112.93 0H118.852V36.967H112.93V0Z" fill="#101828"/>
<path d="M144.34 15.596C143.145 14.431 141.728 13.5183 140.173 12.9121C138.618 12.3059 136.957 12.0187 135.289 12.0675C133.57 12.0113 131.857 12.3015 130.253 12.9208C128.649 13.5401 127.185 14.4759 125.95 15.6725C124.745 16.8573 123.798 18.279 123.17 19.8478C122.541 21.4166 122.244 23.0986 122.298 24.7878C122.246 26.4517 122.525 28.1094 123.12 29.6643C123.714 31.2191 124.612 32.6401 125.762 33.8443C126.878 35.0147 128.226 35.9394 129.719 36.5591C131.213 37.1789 132.819 37.48 134.436 37.4434C136.058 37.5065 137.666 37.1244 139.086 36.3386C140.507 35.5528 141.685 34.3933 142.493 32.9857V36.967H147.992V24.4114C148.036 22.7679 147.734 21.1335 147.105 19.6146C146.476 18.0957 145.533 16.7264 144.34 15.596ZM140.029 29.763C139.394 30.4093 138.632 30.9162 137.791 31.2513C136.949 31.5865 136.047 31.7426 135.142 31.7096C134.238 31.736 133.339 31.577 132.5 31.2421C131.66 30.9073 130.898 30.4039 130.261 29.763C129.62 29.1067 129.117 28.3278 128.784 27.473C128.45 26.6182 128.293 25.7049 128.32 24.7878C128.291 23.8774 128.447 22.9707 128.781 22.1232C129.115 21.2757 129.618 20.5054 130.261 19.8596C130.891 19.2068 131.651 18.6923 132.491 18.3491C133.332 18.0059 134.234 17.8413 135.142 17.866C136.051 17.8361 136.956 17.9982 137.798 18.3418C138.64 18.6853 139.4 19.2025 140.029 19.8596C140.671 20.5054 141.175 21.2757 141.508 22.1232C141.842 22.9707 141.999 23.8774 141.97 24.7878C141.997 25.7049 141.839 26.6182 141.506 27.473C141.172 28.3278 140.67 29.1067 140.029 29.763Z" fill="#101828"/>
<path d="M159.048 40.6249C159.236 40.6249 159.442 40.6778 159.73 40.7131C161.255 40.8368 162.791 40.7096 164.276 40.3367C165.635 39.9491 166.851 39.1723 167.775 38.102C167.918 37.917 168.046 37.7203 168.157 37.5139C168.198 37.4375 168.239 37.361 168.275 37.2846C168.776 36.2022 169.021 35.0191 168.992 33.8266V33.1856C168.278 34.1802 167.328 34.9822 166.228 35.52C165.128 36.0577 163.911 36.3145 162.688 36.2672C159.308 36.2672 156.589 35.24 154.531 33.1856C152.473 31.1312 151.448 28.3025 151.455 24.6995V12.5615H157.377V24.6937C157.332 25.4847 157.452 26.2764 157.73 27.0185C158.007 27.7606 158.436 28.4369 158.989 29.0043C160.155 29.9879 161.632 30.5273 163.158 30.5273C164.684 30.5273 166.161 29.9879 167.328 29.0043C167.895 28.445 168.337 27.7713 168.624 27.0281C168.911 26.2849 169.036 25.4891 168.992 24.6937V12.5615H174.914V33.8208L174.779 36.2613C174.485 38.8959 173.603 41.5129 171.703 43.3889L171.597 43.4889C169.245 45.7236 165.716 46.8174 162.511 47.0174C161.11 47.1067 159.703 47.0516 158.312 46.8527C157.217 46.6954 156.131 46.4755 155.06 46.194L159.048 40.6249Z" fill="#101828"/>
<path fill-rule="evenodd" clip-rule="evenodd" d="M86.572 12.9849C86.3544 13.1672 86.1427 13.3672 85.9369 13.573C84.479 14.9952 83.3368 16.7084 82.5848 18.6011C82.3966 18.6011 82.1908 18.5482 81.9026 18.5129C80.3769 18.3893 78.8413 18.5164 77.3567 18.8893C75.9973 19.2769 74.781 20.0537 73.8576 21.124C73.714 21.309 73.5861 21.5057 73.4754 21.7121C73.4342 21.7886 73.393 21.865 73.3577 21.9414C72.8565 23.0238 72.611 24.207 72.6403 25.3994V37.0082H66.7183V25.3347C66.7183 21.9532 67.4122 18.2247 69.9292 15.7665L70.0351 15.6666C72.3874 13.4319 75.9159 12.338 79.121 12.1381C80.5226 12.0487 81.9296 12.1039 83.3199 12.3027C84.4161 12.4678 85.5019 12.6955 86.572 12.9849Z" fill="#101828"/>
<defs>
<linearGradient id="paint0_linear_5425_164025" x1="16.1158" y1="6.2026" x2="50.5008" y2="40.1129" gradientUnits="userSpaceOnUse">
<stop stop-color="#50BEBA"/>
<stop offset="1" stop-color="#1C0F90"/>
</linearGradient>
<linearGradient id="paint1_linear_5425_164025" x1="9.24674" y1="47.0575" x2="45.504" y2="23.8104" gradientUnits="userSpaceOnUse">
<stop stop-color="#450E81"/>
<stop offset="0.995673" stop-color="#4A1A7F" stop-opacity="0.1"/>
</linearGradient>
<linearGradient id="paint2_linear_5425_164025" x1="16.1158" y1="6.2026" x2="50.5008" y2="40.1129" gradientUnits="userSpaceOnUse">
<stop stop-color="#50BEBA"/>
<stop offset="1" stop-color="#1C0F90"/>
</linearGradient>
<linearGradient id="paint3_linear_5425_164025" x1="9.24674" y1="47.0575" x2="45.504" y2="23.8104" gradientUnits="userSpaceOnUse">
<stop stop-color="#450E81"/>
<stop offset="0.995673" stop-color="#4A1A7F" stop-opacity="0.1"/>
</linearGradient>
<linearGradient id="paint4_linear_5425_164025" x1="16.1158" y1="6.2026" x2="50.5008" y2="40.1129" gradientUnits="userSpaceOnUse">
<stop stop-color="#50BEBA"/>
<stop offset="1" stop-color="#1C0F90"/>
</linearGradient>
<linearGradient id="paint5_linear_5425_164025" x1="9.24674" y1="47.0575" x2="45.504" y2="23.8104" gradientUnits="userSpaceOnUse">
<stop stop-color="#450E81"/>
<stop offset="0.995673" stop-color="#4A1A7F" stop-opacity="0.1"/>
</linearGradient>
</defs>
</svg>