<svg xmlns="http://www.w3.org/2000/svg" viewBox="0 0 50 32"><path d="M42.7 3.2c-.5 0-.9-.3-.9-.6v-2c0-.3-.4-.6-.9-.6H9.3c-.5 0-1 .3-1 .6v1.9c0 .3-.4.6-.9.6H.9c-.5.1-.9.4-.9.7v8.3c0 .3.4.6.9.6h14.8c.5 0 .9.3.9.6v1.9c0 .3.4.6.9.6h14.8c.5 0 .9.3.9.6v5.1c0 .3-.4.6-.9.6H26c-.5 0-.9-.3-.9-.6v-1.9c0-.3-.4-.6-.9-.6h-6.4c-.5 0-.9-.3-.9-.6v-1.9c0-.3-.4-.6-.9-.6H.9c-.5 0-.9.3-.9.6v5.1c0 .3.4.6.9.6h6.4c.5 0 .9.3.9.6v1.9c0 .3.4.6.9.6h31.4c.5 0 .9-.3.9-.6v-1.9c0-.3.4-.6.9-.6H49c.5 0 1-.3 1-.6v-8.3c0-.3-.5-.6-1-.6H34.3c-.5 0-.9-.3-.9-.6v-1.9c0-.3-.4-.6-.9-.6H17.6c-.5 0-.9-.3-.9-.6V3.8c0-.3.4-.6.9-.6H24c.5 0 .9.3.9.6v1.9c0 .3.4.6.9.6h6.4c.5 0 .9.3.9.6v1.9c0 .3.4.6.9.6h14.8c.5 0 .9-.3.9-.6v-5c0-.3-.4-.6-.9-.6h-6.1zM19.2 27H17c-1.1 0-2.2.2-2.2 1.8v1.4c0 1.6 1 1.8 2.2 1.8h2.2c1.1 0 2.2-.2 2.2-1.8v-1.4c0-1.5-1.1-1.8-2.2-1.8zm.4 2.3v.5c0 .6-.1.8-.7.8h-1.8c-.5 0-.7-.1-.7-.8v-.5c0-.5.1-.8.7-.8h1.6c.8 0 .9.3.9.8zm6.6.6c0 .5-.1.7-.6.7h-1.4c-.5 0-.6-.2-.6-.7v-2.8h-1.7v3.1c0 1.2.7 1.8 2 1.8h2c1.4 0 2-.6 2-1.8v-3.1h-1.7v2.8zm7 .2-2.4-3h-2.4V32H30v-3l2.4 3h2.4v-4.9h-1.7v3zm6.6-3h-4.4V32h4.4c1.5 0 2-.5 2-1.7v-1.4c0-1.3-.6-1.8-2-1.8zm-2.7 1.4h2.3c.5 0 .7.1.7.7v.6c0 .5-.1.7-.7.7h-2.3v-2zm-25.6.3c-.8 0-1.4 0-1.5-.1v-.2c0-.1.1-.2.4-.2H12c.5 0 .5.1.5.2v.1h1.7v-.2c0-.9-.3-1.4-1.9-1.4h-2c-1.8 0-2 .7-2 1.6 0 1.3.4 1.5 2.5 1.5 1.8 0 1.8 0 1.8.3 0 .2-.1.2-.4.2h-1.7c-.3 0-.4 0-.4-.2v-.1H8.3v.3c0 1.2.7 1.4 1.9 1.4h1.7c1.9 0 2.4-.2 2.4-1.6 0-.6-.1-.9-.3-1.2-.4-.3-1.1-.4-2.5-.4z"></path></svg>